<?xml version="1.0" encoding="UTF-8" standalone="no"?>
<!-- Created with Inkscape (http://www.inkscape.org/) -->

<svg
   xmlns:dc="http://purl.org/dc/elements/1.1/"
   xmlns:cc="http://creativecommons.org/ns#"
   xmlns:rdf="http://www.w3.org/1999/02/22-rdf-syntax-ns#"
   xmlns:svg="http://www.w3.org/2000/svg"
   xmlns="http://www.w3.org/2000/svg"
   xmlns:sodipodi="http://sodipodi.sourceforge.net/DTD/sodipodi-0.dtd"
   xmlns:inkscape="http://www.inkscape.org/namespaces/inkscape"
   id="svg885"
   version="1.1"
   viewBox="0 0 105.83333 105.83334"
   height="400"
   width="400"
   inkscape:version="0.92.1 r15371"
   sodipodi:docname="maps.svg">
  <defs
     id="defs879">
    <style
       id="style872"
       type="text/css">
    .fil0 {fill:black}
  </style>
  </defs>
  <sodipodi:namedview
     inkscape:window-maximized="1"
     inkscape:window-y="1072"
     inkscape:window-x="-8"
     inkscape:window-height="1017"
     inkscape:window-width="1920"
     units="px"
     showgrid="false"
     inkscape:current-layer="layer1"
     inkscape:document-units="mm"
     inkscape:cy="385.55291"
     inkscape:cx="175.43988"
     inkscape:zoom="4.34"
     inkscape:pageshadow="2"
     inkscape:pageopacity="0.0"
     borderopacity="1.0"
     bordercolor="#666666"
     pagecolor="#ffffff"
     id="base" />
  <metadata
     id="metadata882">
    <rdf:RDF>
      <cc:Work
         rdf:about="">
        <dc:format>image/svg+xml</dc:format>
        <dc:type
           rdf:resource="http://purl.org/dc/dcmitype/StillImage" />
        <dc:title />
      </cc:Work>
    </rdf:RDF>
  </metadata>
  <g
     inkscape:label="Layer 1"
     inkscape:groupmode="layer"
     id="layer1"
     transform="translate(0,-191.16665)">
    <path
       style="opacity:0;fill:#c8102e;fill-opacity:1;stroke:#c8102e;stroke-width:0.26458332;stroke-opacity:1"
       id="path887"
       d="m 46.477361,113.75171 c 0.886778,0.49027 1.676387,1.11486 2.432659,1.78388 0.840269,0.83401 1.66202,1.68903 2.454058,2.56913 0.883454,1.02151 1.811308,2.00003 2.784763,2.93561 1.020937,1.0044 2.071026,1.98065 3.131246,2.94397 1.070933,1.00151 2.237838,1.89187 3.381031,2.80788 1.263848,1.00517 2.601563,1.9115 3.913381,2.85184 1.134485,0.75532 2.269693,1.50198 3.455259,2.17466 1.064723,0.58912 2.134362,1.16863 3.247541,1.66142 0.938345,0.44511 1.926519,0.75651 2.909065,1.08356 0.844243,0.24102 1.68752,0.48394 2.546461,0.66799 0.679172,0.13374 1.371243,0.16403 2.061379,0.17824 0.493223,0.006 0.986491,0.001 1.479725,-8e-4 0.4313,-0.0281 0.876636,0.0532 1.299437,-0.0459 0.466651,-0.0557 0.913458,-0.17842 1.370354,-0.28211 0.39797,-0.22531 0.902481,-0.16325 1.282917,-0.39676 0.403453,-0.22643 0.858425,-0.36123 1.305671,-0.47758 0.45606,-0.0916 0.896625,-0.23294 1.328301,-0.40186 0.377963,-0.0745 0.733351,-0.2088 1.105159,-0.30434 0.317334,-0.1967 0.682453,-0.23972 1.008372,-0.41921 0.06784,-0.0308 0.134493,-0.0644 0.203518,-0.0925 0.134567,-0.0547 0.521525,-0.25535 0.395346,-0.18337 -3.995135,2.27919 -2.763452,1.62951 -1.93026,1.0771 0.28965,-0.19915 0.540774,-0.44408 0.799772,-0.67956 0.227708,-0.25579 0.369371,-0.58605 0.459975,-0.91346 0.124137,-0.50065 0.301414,-0.98474 0.445223,-1.47977 0.188843,-0.61279 0.370871,-1.21984 0.469897,-1.85438 0.118285,-0.58363 0.217374,-1.16938 0.272902,-1.76239 0.04138,-0.51124 0.04358,-1.02441 0.04495,-1.53698 -0.0043,-0.44588 0.02577,-0.89115 -0.05555,-1.33129 -0.07188,-0.18715 -0.03229,-0.0922 -0.119642,-0.28432 0,0 2.50654,-1.41566 2.50654,-1.41566 v 0 c 0.101391,0.22064 0.05116,0.10572 0.149818,0.34517 0.09412,0.45857 0.08273,0.91758 0.07489,1.38465 -0.0016,0.51986 0.0019,1.04045 -0.03471,1.55932 -0.05032,0.59899 -0.13502,1.1946 -0.272055,1.78042 -0.08986,0.64732 -0.242025,1.26913 -0.450768,1.8879 -0.140441,0.49058 -0.292418,0.97379 -0.442595,1.46121 -0.0713,0.37799 -0.208492,0.7138 -0.391703,1.05041 -0.225231,0.274 -0.510286,0.50397 -0.787074,0.72332 -0.195546,0.17217 -0.113014,0.11617 -0.341059,0.24902 -1.130813,0.65875 -2.090774,1.31812 -3.245836,1.80418 -0.343853,0.13537 -0.696945,0.24786 -1.039543,0.38567 -0.361479,0.11482 -0.733528,0.18709 -1.088676,0.32151 -0.435909,0.15918 -0.891029,0.25845 -1.338403,0.37985 -0.441534,0.13897 -0.875305,0.29683 -1.288237,0.50743 -0.438179,0.11528 -0.879742,0.21476 -1.310638,0.35733 -0.458978,0.11196 -0.921848,0.1968 -1.389816,0.26275 -0.439309,0.0221 -0.879576,0.006 -1.3193,0.0131 -0.49295,10e-4 -0.986033,0.004 -1.478817,-0.0117 -0.698603,-0.0275 -1.398265,-0.0762 -2.082324,-0.23019 -0.860647,-0.20186 -1.712224,-0.4381 -2.558007,-0.6951 -0.986676,-0.33033 -1.970125,-0.66931 -2.912023,-1.11616 -1.112224,-0.51013 -2.191504,-1.08517 -3.256468,-1.68743 -1.189151,-0.67971 -2.325674,-1.43975 -3.46021,-2.20658 -1.31322,-0.94386 -2.647257,-1.86041 -3.91255,-2.86891 -1.15479,-0.91359 -2.338141,-1.79624 -3.404179,-2.81528 -1.060405,-0.96697 -2.111531,-1.94547 -3.136358,-2.9498 -0.978437,-0.94052 -1.907791,-1.9269 -2.802718,-2.94754 -0.791003,-0.8678 -1.602015,-1.71921 -2.445348,-2.53633 -0.750609,-0.65263 -1.531461,-1.26899 -2.426136,-1.71608 0,0 2.401387,-1.56513 2.401387,-1.56513 z"
       inkscape:connector-curvature="0" />
    <path
       style="opacity:0.01000001;fill:#c8102e;fill-opacity:1;stroke:#c8102e;stroke-width:0.26458332;stroke-opacity:1"
       id="path896"
       d="m 19.056144,143.67657 c -0.03985,2.01436 -0.03332,4.02935 -0.03076,6.04401 -3.17e-4,2.09806 0.0016,4.19611 0.0022,6.29417 -0.0076,2.33828 -0.0059,4.67658 -0.0119,7.01485 5.03e-4,2.65566 -0.0031,5.31134 -0.0087,7.967 -0.0068,3.0457 -0.0047,6.0914 -0.0065,9.1371 0.04073,3.31531 0.331697,6.61716 0.789224,9.89894 0.342645,3.00995 0.983988,5.97257 1.92728,8.8494 0.489964,1.6035 1.475385,2.94053 2.347853,4.34097 0.410865,0.7875 1.020196,1.36702 1.683094,1.9266 0.320295,0.36359 0.160135,0.19624 0.477036,0.50534 0,0 -4.909797,3.00886 -4.909797,3.00886 v 0 c -0.310115,-0.31709 -0.160927,-0.16196 -0.44801,-0.46494 -0.710595,-0.59467 -1.302531,-1.28345 -1.754619,-2.09977 -0.872501,-1.45301 -1.863022,-2.844 -2.35013,-4.49438 -0.928196,-2.91662 -1.568633,-5.91844 -1.927119,-8.95916 -0.475704,-3.30137 -0.760952,-6.62649 -0.838765,-9.96222 -0.0018,-3.0435 3.17e-4,-6.087 -0.0065,-9.1305 -0.0056,-2.65272 -0.0092,-5.30544 -0.0087,-7.95816 -0.006,-2.33423 -0.0043,-4.66849 -0.01191,-7.00272 6.62e-4,-2.09881 0.0025,-4.19762 0.0022,-6.29644 0.0025,-2.00421 0.0093,-4.00876 -0.03077,-6.01266 0,0 5.115143,-2.60629 5.115143,-2.60629 z"
       inkscape:connector-curvature="0" />
    <text
       xml:space="preserve"
       style="font-style:normal;font-variant:normal;font-weight:normal;font-stretch:normal;font-size:21.16666603px;line-height:1.25;font-family:'Bembo Small Caps &amp; Oldstyle Fig';-inkscape-font-specification:'Bembo Small Caps &amp; Oldstyle Fig';text-align:center;letter-spacing:0px;word-spacing:0px;text-anchor:middle;fill:#c8102e;fill-opacity:0;stroke:none;stroke-width:0.26458332;"
       x="18.728109"
       y="203.80534"
       id="text1550"><tspan
         sodipodi:role="line"
         id="tspan1548"
         x="18.728109"
         y="203.80534"
         style="stroke-width:0.26458332;fill:#c8102e;fill-opacity:0;">h</tspan></text>
    <text
       xml:space="preserve"
       style="font-style:normal;font-variant:normal;font-weight:normal;font-stretch:normal;font-size:21.16666603px;line-height:1.25;font-family:'Bembo Small Caps &amp; Oldstyle Fig';-inkscape-font-specification:'Bembo Small Caps &amp; Oldstyle Fig';text-align:center;letter-spacing:0px;word-spacing:0px;text-anchor:middle;fill:#c8102e;fill-opacity:0;stroke:none;stroke-width:0.26458332"
       x="-60.961941"
       y="213.16939"
       id="text1554"
       transform="scale(-1,1)"><tspan
         sodipodi:role="line"
         id="tspan1552"
         x="-60.961941"
         y="236.98189"
         style="fill:#c8102e;fill-opacity:0;stroke-width:0.26458332" /></text>
    <text
       xml:space="preserve"
       style="font-style:normal;font-variant:normal;font-weight:normal;font-stretch:normal;font-size:21.16666603px;line-height:1.25;font-family:'Bembo Small Caps &amp; Oldstyle Fig';-inkscape-font-specification:'Bembo Small Caps &amp; Oldstyle Fig';text-align:center;letter-spacing:0px;word-spacing:0px;text-anchor:middle;fill:#c8102e;fill-opacity:0;stroke:none;stroke-width:0.26458332;"
       x="10.25587"
       y="204.69716"
       id="text1558"><tspan
         sodipodi:role="line"
         id="tspan1556"
         x="10.25587"
         y="204.69716"
         style="stroke-width:0.26458332;fill:#c8102e;fill-opacity:0;">h</tspan></text>
    <text
       xml:space="preserve"
       style="font-style:normal;font-variant:normal;font-weight:normal;font-stretch:normal;font-size:21.16666603px;line-height:1.25;font-family:'Bembo Small Caps &amp; Oldstyle Fig';-inkscape-font-specification:'Bembo Small Caps &amp; Oldstyle Fig';text-align:center;letter-spacing:0px;word-spacing:0px;text-anchor:middle;fill:#c8102e;fill-opacity:0;stroke:none;stroke-width:0.26458332;"
       x="64.879524"
       y="230.11388"
       id="text1562"><tspan
         sodipodi:role="line"
         id="tspan1560"
         x="64.879524"
         y="253.92638"
         style="stroke-width:0.26458332;fill:#c8102e;fill-opacity:0;" /></text>
    <flowRoot
       xml:space="preserve"
       id="flowRoot1564"
       style="fill:#c8102e;fill-opacity:0;stroke:none;font-family:'Bembo Small Caps &amp; Oldstyle Fig';font-style:normal;font-weight:normal;font-size:80px;line-height:1.25;letter-spacing:0px;word-spacing:0px;-inkscape-font-specification:'Bembo Small Caps &amp; Oldstyle Fig';font-stretch:normal;font-variant:normal;text-anchor:middle;text-align:center;"><flowRegion
         id="flowRegion1566"
         style="fill:#c8102e;fill-opacity:0;"><rect
           id="rect1568"
           width="405.31927"
           height="111.23107"
           x="0.84265965"
           y="2.2646477"
           style="fill:#c8102e;fill-opacity:0;" /></flowRegion><flowPara
         id="flowPara1570" /></flowRoot>    <text
       xml:space="preserve"
       style="font-style:normal;font-variant:normal;font-weight:normal;font-stretch:normal;font-size:21.16666603px;line-height:1.25;font-family:'Bembo Small Caps &amp; Oldstyle Fig';-inkscape-font-specification:'Bembo Small Caps &amp; Oldstyle Fig';text-align:center;letter-spacing:0px;word-spacing:0px;text-anchor:middle;fill:#ff2a2a;fill-opacity:1;stroke:none;stroke-width:0.26458332;"
       x="53.731838"
       y="204.9201"
       id="text1574"><tspan
         sodipodi:role="line"
         id="tspan1572"
         x="53.731838"
         y="228.7326"
         style="stroke-width:0.26458332;fill:#ff2a2a;fill-opacity:1;" /></text>
    <text
       xml:space="preserve"
       style="font-style:normal;font-variant:normal;font-weight:normal;font-stretch:normal;font-size:21.16666603px;line-height:1.25;font-family:'Bembo Small Caps &amp; Oldstyle Fig';-inkscape-font-specification:'Bembo Small Caps &amp; Oldstyle Fig';text-align:center;letter-spacing:0px;word-spacing:0px;text-anchor:middle;fill:#ff2a2a;fill-opacity:1;stroke:none;stroke-width:0.26458332;"
       x="77.141983"
       y="226.32365"
       id="text1578"><tspan
         sodipodi:role="line"
         id="tspan1576"
         x="77.141983"
         y="250.13615"
         style="stroke-width:0.26458332;fill:#ff2a2a;fill-opacity:1;" /></text>
    <flowRoot
       xml:space="preserve"
       id="flowRoot1580"
       style="font-style:normal;font-variant:normal;font-weight:normal;font-stretch:normal;font-size:80px;line-height:1.25;font-family:'Bembo Small Caps &amp; Oldstyle Fig';-inkscape-font-specification:'Bembo Small Caps &amp; Oldstyle Fig';text-align:center;letter-spacing:0px;word-spacing:0px;text-anchor:middle;fill:#ff2a2a;fill-opacity:1;stroke:none;"
       transform="matrix(0.26458333,0,0,0.26458333,0,191.16665)"><flowRegion
         id="flowRegion1582"
         style="fill:#ff2a2a;fill-opacity:1;"><rect
           id="rect1584"
           width="399.84201"
           height="84.687294"
           x="0"
           y="0.15799847"
           style="fill:#ff2a2a;fill-opacity:1;" /></flowRegion><flowPara
         id="flowPara1586">N</flowPara></flowRoot>    <text
       xml:space="preserve"
       style="font-style:normal;font-variant:normal;font-weight:500;font-stretch:normal;font-size:21.16666603px;line-height:1.25;font-family:'Bembo Small Caps &amp; Oldstyle Fig';-inkscape-font-specification:'Bembo Small Caps &amp; Oldstyle Fig, Medium';font-variant-ligatures:normal;font-variant-caps:normal;font-variant-numeric:normal;font-feature-settings:normal;text-align:center;letter-spacing:0px;word-spacing:0px;writing-mode:lr-tb;text-anchor:middle;fill:#c8102e;fill-opacity:1;stroke:none;stroke-width:0.26458332"
       x="53.027519"
       y="205.36745"
       id="text1590"><tspan
         sodipodi:role="line"
         id="tspan957"
         style="font-size:16.93333244px"
         x="53.027519"
         y="205.36745">Maps</tspan></text>
    <ellipse
       style="opacity:1;fill:none;fill-opacity:1;stroke:#c8102e;stroke-width:0.90200001;stroke-miterlimit:4;stroke-dasharray:none;stroke-opacity:1"
       id="path5268"
       cx="52.916668"
       cy="251.03618"
       rx="45.542809"
       ry="44.754547" />
    <ellipse
       style="opacity:1;fill:none;fill-opacity:1;stroke:#c8102e;stroke-width:0.87419587;stroke-miterlimit:4;stroke-dasharray:none;stroke-opacity:1"
       id="path5268-4"
       cx="52.916668"
       cy="251.03618"
       rx="44.13895"
       ry="43.374989" />
    <rect
       style="opacity:0;fill:#c8102e;fill-opacity:1;stroke:#c8102e;stroke-width:0.26458332;stroke-opacity:1"
       id="rect888"
       width="29.013794"
       height="26.038019"
       x="29.943722"
       y="213.67831" />
    <rect
       style="opacity:0;fill:#c8102e;fill-opacity:1;stroke:#c8102e;stroke-width:0.26458332;stroke-opacity:1"
       id="rect890"
       width="8.9273233"
       height="18.4126"
       x="58.957516"
       y="239.71634" />
    <rect
       style="opacity:0;fill:#c8102e;fill-opacity:1;stroke:#c8102e;stroke-width:0.26458332;stroke-opacity:1"
       id="rect892"
       width="47.24041"
       height="66.582932"
       x="31.43161"
       y="217.58401" />
    <rect
       style="opacity:0;fill:#c8102e;fill-opacity:1;stroke:#c8102e;stroke-width:0.26458332;stroke-opacity:1"
       id="rect894"
       width="12.461052"
       height="0.92995703"
       x="18.970558"
       y="284.16693" />
    <rect
       style="opacity:0;fill:#c8102e;fill-opacity:1;stroke:#c8102e;stroke-width:0.26458332;stroke-opacity:1"
       id="rect896"
       width="53.005974"
       height="65.281006"
       x="25.666048"
       y="218.88593" />
    <rect
       style="opacity:0;fill:#c8102e;fill-opacity:1;stroke:#c8102e;stroke-width:0.26458332;stroke-opacity:1"
       id="rect898"
       width="6.2342153"
       height="0.71142435"
       x="46.682449"
       y="218.69994" />
    <g
       id="g963"
       stroke-miterlimit="10"
       transform="matrix(1.3605584,0,0,1.3605584,-31.64667,187.61277)"
       style="fill:#c8102e;fill-opacity:1;stroke-miterlimit:10">
      <path
         id="path959"
         d="m 77.003405,32.641 c 0,3.947 -5.508,14.63 -9.125,24.591 -3.803,10.476 -5.725,20.148 -5.725,20.148 0,0 -1.932,-9.655 -5.741,-20.148 -3.611,-9.948 -9.109,-20.65 -9.109,-24.591 0,-8.097 6.648,-14.661 14.85,-14.661 8.202,0 14.85,6.564 14.85,14.661 z"
         inkscape:connector-curvature="0"
         style="fill:#c8102e;fill-opacity:1;stroke:none;stroke-width:0.1268" />
      <ellipse
         id="ellipse961"
         ry="6.875"
         rx="6.697"
         cy="32.445999"
         cx="62.153404"
         style="fill:#c8102e;fill-opacity:1;stroke:#ffffff;stroke-width:2.75" />
    </g>
  </g>
</svg>
