<?xml version="1.0" encoding="UTF-8" standalone="no"?>
<!-- Created with Inkscape (http://www.inkscape.org/) -->

<svg
   xmlns:dc="http://purl.org/dc/elements/1.1/"
   xmlns:cc="http://creativecommons.org/ns#"
   xmlns:rdf="http://www.w3.org/1999/02/22-rdf-syntax-ns#"
   xmlns:svg="http://www.w3.org/2000/svg"
   xmlns="http://www.w3.org/2000/svg"
   xmlns:sodipodi="http://sodipodi.sourceforge.net/DTD/sodipodi-0.dtd"
   xmlns:inkscape="http://www.inkscape.org/namespaces/inkscape"
   id="svg885"
   version="1.1"
   viewBox="0 0 105.83333 105.83334"
   height="400"
   width="400"
   inkscape:version="0.92.1 r15371"
   sodipodi:docname="sports.svg">
  <defs
     id="defs879">
    <style
       id="style872"
       type="text/css">
    .fil0 {fill:black}
  </style>
  </defs>
  <sodipodi:namedview
     inkscape:window-maximized="1"
     inkscape:window-y="1072"
     inkscape:window-x="-8"
     inkscape:window-height="1017"
     inkscape:window-width="1920"
     units="px"
     showgrid="false"
     inkscape:current-layer="layer1"
     inkscape:document-units="mm"
     inkscape:cy="343.91886"
     inkscape:cx="18.375487"
     inkscape:zoom="3.0688434"
     inkscape:pageshadow="2"
     inkscape:pageopacity="0.0"
     borderopacity="1.0"
     bordercolor="#666666"
     pagecolor="#ffffff"
     id="base" />
  <metadata
     id="metadata882">
    <rdf:RDF>
      <cc:Work
         rdf:about="">
        <dc:format>image/svg+xml</dc:format>
        <dc:type
           rdf:resource="http://purl.org/dc/dcmitype/StillImage" />
        <dc:title />
      </cc:Work>
    </rdf:RDF>
  </metadata>
  <g
     inkscape:label="Layer 1"
     inkscape:groupmode="layer"
     id="layer1"
     transform="translate(0,-191.16665)">
    <path
       style="opacity:0;fill:#c8102e;fill-opacity:1;stroke:#c8102e;stroke-width:0.26458332;stroke-opacity:1"
       id="path887"
       d="m 46.477361,113.75171 c 0.886778,0.49027 1.676387,1.11486 2.432659,1.78388 0.840269,0.83401 1.66202,1.68903 2.454058,2.56913 0.883454,1.02151 1.811308,2.00003 2.784763,2.93561 1.020937,1.0044 2.071026,1.98065 3.131246,2.94397 1.070933,1.00151 2.237838,1.89187 3.381031,2.80788 1.263848,1.00517 2.601563,1.9115 3.913381,2.85184 1.134485,0.75532 2.269693,1.50198 3.455259,2.17466 1.064723,0.58912 2.134362,1.16863 3.247541,1.66142 0.938345,0.44511 1.926519,0.75651 2.909065,1.08356 0.844243,0.24102 1.68752,0.48394 2.546461,0.66799 0.679172,0.13374 1.371243,0.16403 2.061379,0.17824 0.493223,0.006 0.986491,0.001 1.479725,-8e-4 0.4313,-0.0281 0.876636,0.0532 1.299437,-0.0459 0.466651,-0.0557 0.913458,-0.17842 1.370354,-0.28211 0.39797,-0.22531 0.902481,-0.16325 1.282917,-0.39676 0.403453,-0.22643 0.858425,-0.36123 1.305671,-0.47758 0.45606,-0.0916 0.896625,-0.23294 1.328301,-0.40186 0.377963,-0.0745 0.733351,-0.2088 1.105159,-0.30434 0.317334,-0.1967 0.682453,-0.23972 1.008372,-0.41921 0.06784,-0.0308 0.134493,-0.0644 0.203518,-0.0925 0.134567,-0.0547 0.521525,-0.25535 0.395346,-0.18337 -3.995135,2.27919 -2.763452,1.62951 -1.93026,1.0771 0.28965,-0.19915 0.540774,-0.44408 0.799772,-0.67956 0.227708,-0.25579 0.369371,-0.58605 0.459975,-0.91346 0.124137,-0.50065 0.301414,-0.98474 0.445223,-1.47977 0.188843,-0.61279 0.370871,-1.21984 0.469897,-1.85438 0.118285,-0.58363 0.217374,-1.16938 0.272902,-1.76239 0.04138,-0.51124 0.04358,-1.02441 0.04495,-1.53698 -0.0043,-0.44588 0.02577,-0.89115 -0.05555,-1.33129 -0.07188,-0.18715 -0.03229,-0.0922 -0.119642,-0.28432 0,0 2.50654,-1.41566 2.50654,-1.41566 v 0 c 0.101391,0.22064 0.05116,0.10572 0.149818,0.34517 0.09412,0.45857 0.08273,0.91758 0.07489,1.38465 -0.0016,0.51986 0.0019,1.04045 -0.03471,1.55932 -0.05032,0.59899 -0.13502,1.1946 -0.272055,1.78042 -0.08986,0.64732 -0.242025,1.26913 -0.450768,1.8879 -0.140441,0.49058 -0.292418,0.97379 -0.442595,1.46121 -0.0713,0.37799 -0.208492,0.7138 -0.391703,1.05041 -0.225231,0.274 -0.510286,0.50397 -0.787074,0.72332 -0.195546,0.17217 -0.113014,0.11617 -0.341059,0.24902 -1.130813,0.65875 -2.090774,1.31812 -3.245836,1.80418 -0.343853,0.13537 -0.696945,0.24786 -1.039543,0.38567 -0.361479,0.11482 -0.733528,0.18709 -1.088676,0.32151 -0.435909,0.15918 -0.891029,0.25845 -1.338403,0.37985 -0.441534,0.13897 -0.875305,0.29683 -1.288237,0.50743 -0.438179,0.11528 -0.879742,0.21476 -1.310638,0.35733 -0.458978,0.11196 -0.921848,0.1968 -1.389816,0.26275 -0.439309,0.0221 -0.879576,0.006 -1.3193,0.0131 -0.49295,10e-4 -0.986033,0.004 -1.478817,-0.0117 -0.698603,-0.0275 -1.398265,-0.0762 -2.082324,-0.23019 -0.860647,-0.20186 -1.712224,-0.4381 -2.558007,-0.6951 -0.986676,-0.33033 -1.970125,-0.66931 -2.912023,-1.11616 -1.112224,-0.51013 -2.191504,-1.08517 -3.256468,-1.68743 -1.189151,-0.67971 -2.325674,-1.43975 -3.46021,-2.20658 -1.31322,-0.94386 -2.647257,-1.86041 -3.91255,-2.86891 -1.15479,-0.91359 -2.338141,-1.79624 -3.404179,-2.81528 -1.060405,-0.96697 -2.111531,-1.94547 -3.136358,-2.9498 -0.978437,-0.94052 -1.907791,-1.9269 -2.802718,-2.94754 -0.791003,-0.8678 -1.602015,-1.71921 -2.445348,-2.53633 -0.750609,-0.65263 -1.531461,-1.26899 -2.426136,-1.71608 0,0 2.401387,-1.56513 2.401387,-1.56513 z"
       inkscape:connector-curvature="0" />
    <path
       style="opacity:0.01000001;fill:#c8102e;fill-opacity:1;stroke:#c8102e;stroke-width:0.26458332;stroke-opacity:1"
       id="path896"
       d="m 19.056144,143.67657 c -0.03985,2.01436 -0.03332,4.02935 -0.03076,6.04401 -3.17e-4,2.09806 0.0016,4.19611 0.0022,6.29417 -0.0076,2.33828 -0.0059,4.67658 -0.0119,7.01485 5.03e-4,2.65566 -0.0031,5.31134 -0.0087,7.967 -0.0068,3.0457 -0.0047,6.0914 -0.0065,9.1371 0.04073,3.31531 0.331697,6.61716 0.789224,9.89894 0.342645,3.00995 0.983988,5.97257 1.92728,8.8494 0.489964,1.6035 1.475385,2.94053 2.347853,4.34097 0.410865,0.7875 1.020196,1.36702 1.683094,1.9266 0.320295,0.36359 0.160135,0.19624 0.477036,0.50534 0,0 -4.909797,3.00886 -4.909797,3.00886 v 0 c -0.310115,-0.31709 -0.160927,-0.16196 -0.44801,-0.46494 -0.710595,-0.59467 -1.302531,-1.28345 -1.754619,-2.09977 -0.872501,-1.45301 -1.863022,-2.844 -2.35013,-4.49438 -0.928196,-2.91662 -1.568633,-5.91844 -1.927119,-8.95916 -0.475704,-3.30137 -0.760952,-6.62649 -0.838765,-9.96222 -0.0018,-3.0435 3.17e-4,-6.087 -0.0065,-9.1305 -0.0056,-2.65272 -0.0092,-5.30544 -0.0087,-7.95816 -0.006,-2.33423 -0.0043,-4.66849 -0.01191,-7.00272 6.62e-4,-2.09881 0.0025,-4.19762 0.0022,-6.29644 0.0025,-2.00421 0.0093,-4.00876 -0.03077,-6.01266 0,0 5.115143,-2.60629 5.115143,-2.60629 z"
       inkscape:connector-curvature="0" />
    <text
       xml:space="preserve"
       style="font-style:normal;font-variant:normal;font-weight:normal;font-stretch:normal;font-size:21.16666603px;line-height:1.25;font-family:'Bembo Small Caps &amp; Oldstyle Fig';-inkscape-font-specification:'Bembo Small Caps &amp; Oldstyle Fig';text-align:center;letter-spacing:0px;word-spacing:0px;text-anchor:middle;fill:#c8102e;fill-opacity:0;stroke:none;stroke-width:0.26458332;"
       x="18.728109"
       y="203.80534"
       id="text1550"><tspan
         sodipodi:role="line"
         id="tspan1548"
         x="18.728109"
         y="203.80534"
         style="stroke-width:0.26458332;fill:#c8102e;fill-opacity:0;">h</tspan></text>
    <text
       xml:space="preserve"
       style="font-style:normal;font-variant:normal;font-weight:normal;font-stretch:normal;font-size:21.16666603px;line-height:1.25;font-family:'Bembo Small Caps &amp; Oldstyle Fig';-inkscape-font-specification:'Bembo Small Caps &amp; Oldstyle Fig';text-align:center;letter-spacing:0px;word-spacing:0px;text-anchor:middle;fill:#c8102e;fill-opacity:0;stroke:none;stroke-width:0.26458332"
       x="-60.961941"
       y="213.16939"
       id="text1554"
       transform="scale(-1,1)"><tspan
         sodipodi:role="line"
         id="tspan1552"
         x="-60.961941"
         y="236.98189"
         style="fill:#c8102e;fill-opacity:0;stroke-width:0.26458332" /></text>
    <text
       xml:space="preserve"
       style="font-style:normal;font-variant:normal;font-weight:normal;font-stretch:normal;font-size:21.16666603px;line-height:1.25;font-family:'Bembo Small Caps &amp; Oldstyle Fig';-inkscape-font-specification:'Bembo Small Caps &amp; Oldstyle Fig';text-align:center;letter-spacing:0px;word-spacing:0px;text-anchor:middle;fill:#c8102e;fill-opacity:0;stroke:none;stroke-width:0.26458332;"
       x="10.25587"
       y="204.69716"
       id="text1558"><tspan
         sodipodi:role="line"
         id="tspan1556"
         x="10.25587"
         y="204.69716"
         style="stroke-width:0.26458332;fill:#c8102e;fill-opacity:0;">h</tspan></text>
    <text
       xml:space="preserve"
       style="font-style:normal;font-variant:normal;font-weight:normal;font-stretch:normal;font-size:21.16666603px;line-height:1.25;font-family:'Bembo Small Caps &amp; Oldstyle Fig';-inkscape-font-specification:'Bembo Small Caps &amp; Oldstyle Fig';text-align:center;letter-spacing:0px;word-spacing:0px;text-anchor:middle;fill:#c8102e;fill-opacity:0;stroke:none;stroke-width:0.26458332;"
       x="64.879524"
       y="230.11388"
       id="text1562"><tspan
         sodipodi:role="line"
         id="tspan1560"
         x="64.879524"
         y="253.92638"
         style="stroke-width:0.26458332;fill:#c8102e;fill-opacity:0;" /></text>
    <flowRoot
       xml:space="preserve"
       id="flowRoot1564"
       style="fill:#c8102e;fill-opacity:0;stroke:none;font-family:'Bembo Small Caps &amp; Oldstyle Fig';font-style:normal;font-weight:normal;font-size:80px;line-height:1.25;letter-spacing:0px;word-spacing:0px;-inkscape-font-specification:'Bembo Small Caps &amp; Oldstyle Fig';font-stretch:normal;font-variant:normal;text-anchor:middle;text-align:center;"><flowRegion
         id="flowRegion1566"
         style="fill:#c8102e;fill-opacity:0;"><rect
           id="rect1568"
           width="405.31927"
           height="111.23107"
           x="0.84265965"
           y="2.2646477"
           style="fill:#c8102e;fill-opacity:0;" /></flowRegion><flowPara
         id="flowPara1570" /></flowRoot>    <text
       xml:space="preserve"
       style="font-style:normal;font-variant:normal;font-weight:normal;font-stretch:normal;font-size:21.16666603px;line-height:1.25;font-family:'Bembo Small Caps &amp; Oldstyle Fig';-inkscape-font-specification:'Bembo Small Caps &amp; Oldstyle Fig';text-align:center;letter-spacing:0px;word-spacing:0px;text-anchor:middle;fill:#ff2a2a;fill-opacity:1;stroke:none;stroke-width:0.26458332;"
       x="53.731838"
       y="204.9201"
       id="text1574"><tspan
         sodipodi:role="line"
         id="tspan1572"
         x="53.731838"
         y="228.7326"
         style="stroke-width:0.26458332;fill:#ff2a2a;fill-opacity:1;" /></text>
    <text
       xml:space="preserve"
       style="font-style:normal;font-variant:normal;font-weight:normal;font-stretch:normal;font-size:21.16666603px;line-height:1.25;font-family:'Bembo Small Caps &amp; Oldstyle Fig';-inkscape-font-specification:'Bembo Small Caps &amp; Oldstyle Fig';text-align:center;letter-spacing:0px;word-spacing:0px;text-anchor:middle;fill:#ff2a2a;fill-opacity:1;stroke:none;stroke-width:0.26458332;"
       x="77.141983"
       y="226.32365"
       id="text1578"><tspan
         sodipodi:role="line"
         id="tspan1576"
         x="77.141983"
         y="250.13615"
         style="stroke-width:0.26458332;fill:#ff2a2a;fill-opacity:1;" /></text>
    <flowRoot
       xml:space="preserve"
       id="flowRoot1580"
       style="font-style:normal;font-variant:normal;font-weight:normal;font-stretch:normal;font-size:80px;line-height:1.25;font-family:'Bembo Small Caps &amp; Oldstyle Fig';-inkscape-font-specification:'Bembo Small Caps &amp; Oldstyle Fig';text-align:center;letter-spacing:0px;word-spacing:0px;text-anchor:middle;fill:#ff2a2a;fill-opacity:1;stroke:none;"
       transform="matrix(0.26458333,0,0,0.26458333,0,191.16665)"><flowRegion
         id="flowRegion1582"
         style="fill:#ff2a2a;fill-opacity:1;"><rect
           id="rect1584"
           width="399.84201"
           height="84.687294"
           x="0"
           y="0.15799847"
           style="fill:#ff2a2a;fill-opacity:1;" /></flowRegion><flowPara
         id="flowPara1586">N</flowPara></flowRoot>    <text
       xml:space="preserve"
       style="font-style:normal;font-variant:normal;font-weight:500;font-stretch:normal;font-size:21.16666603px;line-height:1.25;font-family:'Bembo Small Caps &amp; Oldstyle Fig';-inkscape-font-specification:'Bembo Small Caps &amp; Oldstyle Fig, Medium';font-variant-ligatures:normal;font-variant-caps:normal;font-variant-numeric:normal;font-feature-settings:normal;text-align:center;letter-spacing:0px;word-spacing:0px;writing-mode:lr-tb;text-anchor:middle;fill:#c8102e;fill-opacity:1;stroke:none;stroke-width:0.26458332"
       x="53.088482"
       y="205.5085"
       id="text1590"><tspan
         sodipodi:role="line"
         id="tspan998"
         style="font-size:16.93333244px"
         x="53.088482"
         y="205.5085">Sports</tspan></text>
    <ellipse
       style="opacity:1;fill:none;fill-opacity:1;stroke:#c8102e;stroke-width:0.90200001;stroke-miterlimit:4;stroke-dasharray:none;stroke-opacity:1"
       id="path5268"
       cx="52.916668"
       cy="251.03618"
       rx="45.542809"
       ry="44.754547" />
    <ellipse
       style="opacity:1;fill:none;fill-opacity:1;stroke:#c8102e;stroke-width:0.87419587;stroke-miterlimit:4;stroke-dasharray:none;stroke-opacity:1"
       id="path5268-4"
       cx="52.916668"
       cy="251.03618"
       rx="44.13895"
       ry="43.374989" />
    <rect
       style="opacity:0;fill:#c8102e;fill-opacity:1;stroke:#c8102e;stroke-width:0.26458332;stroke-opacity:1"
       id="rect888"
       width="29.013794"
       height="26.038019"
       x="29.943722"
       y="213.67831" />
    <rect
       style="opacity:0;fill:#c8102e;fill-opacity:1;stroke:#c8102e;stroke-width:0.26458332;stroke-opacity:1"
       id="rect890"
       width="8.9273233"
       height="18.4126"
       x="58.957516"
       y="239.71634" />
    <rect
       style="opacity:0;fill:#c8102e;fill-opacity:1;stroke:#c8102e;stroke-width:0.26458332;stroke-opacity:1"
       id="rect892"
       width="47.24041"
       height="66.582932"
       x="31.43161"
       y="217.58401" />
    <rect
       style="opacity:0;fill:#c8102e;fill-opacity:1;stroke:#c8102e;stroke-width:0.26458332;stroke-opacity:1"
       id="rect894"
       width="12.461052"
       height="0.92995703"
       x="18.970558"
       y="284.16693" />
    <rect
       style="opacity:0;fill:#c8102e;fill-opacity:1;stroke:#c8102e;stroke-width:0.26458332;stroke-opacity:1"
       id="rect896"
       width="53.005974"
       height="65.281006"
       x="25.666048"
       y="218.88593" />
    <rect
       style="opacity:0;fill:#c8102e;fill-opacity:1;stroke:#c8102e;stroke-width:0.26458332;stroke-opacity:1"
       id="rect898"
       width="6.2342153"
       height="0.71142435"
       x="46.682449"
       y="218.69994" />
    <path
       style="fill:#c8102e;fill-opacity:1;stroke-width:0.17169209;stroke-miterlimit:10"
       inkscape:connector-curvature="0"
       d="m 51.814462,265.85302 c 0.42013,-0.40948 0.928167,-1.23052 0.928167,-1.23052 -0.101984,-1.89994 1.089216,-2.87017 1.497156,-2.83016 0.304581,0.0288 2.587915,1.05831 2.587915,1.05831 l 3.464059,-2.19423 c 1.549864,-1.80294 4.223283,-2.34875 4.223283,-2.34875 1.493721,-0.14628 1.248372,-0.39781 1.248372,-0.39781 1.265028,-1.55965 1.897198,-6.60894 1.897198,-6.60894 0.246035,-0.90911 0.01065,-0.82945 0.01065,-0.82945 l -1.396887,-0.0182 -0.06868,-1.07822 c -1.024487,-4.07683 1.584546,-8.02129 1.584546,-8.02129 -3.068996,-1.03616 -6.085798,-2.89833 -6.085798,-2.89833 -1.645497,-0.93366 -0.974181,-1.6716 -0.974181,-1.6716 0.265952,-1.23995 3.196392,-3.44019 3.616007,-3.84968 0.9031,-0.88095 2.065628,-2.12984 2.065628,-2.12984 l 4.410426,-2.34531 c 0.798883,-1.31636 0.0249,-1.82405 0.0249,-1.82405 -2.269426,-1.35809 -1.226054,-4.16285 -1.226054,-4.16285 -1.587465,1.05711 0.678013,3.60536 0.678013,3.60536 0.219422,2.24058 -3.346451,4.07065 -3.346451,4.07065 2.177569,-1.71092 0.546322,-3.72384 0.546322,-3.72384 -1.711083,-2.42515 -0.690888,-4.31891 -0.690888,-4.31891 1.521363,-2.22015 3.322241,-0.45601 3.322241,-0.45601 0,0 0.489323,-0.77846 0.758021,-0.90139 0.301491,-0.13855 2.823991,-0.45996 2.823991,-0.45996 1.905093,0.18903 1.551583,1.92707 1.551583,1.92707 0.74119,0.34957 0.4033,2.25724 0.4033,2.25724 0.1789,0.53585 0.74532,1.10707 0.54684,1.18519 -0.17598,0.0671 -0.50306,0.20053 -0.50306,0.20053 0.12242,1.6079 -0.10456,1.83608 -0.22835,1.89428 -0.31351,0.15298 -1.287,0.0848 -1.287,0.0848 -0.761282,1.23395 0.64384,1.50111 0.64384,1.50111 2.98144,0.2881 2.94212,3.27125 2.94212,3.27125 0.91529,-0.31849 2.14203,1.10758 2.14203,1.10758 l -0.24415,6.04923 c -1.10398,2.05722 -1.91608,0.63835 -1.91608,0.63835 l -1.69597,-3.422 c -1.27774,2.63685 -1.32701,6.44996 -1.32701,6.44996 0.1286,2.90452 -1.083721,6.86717 -1.083721,6.86717 l 3.243601,5.59837 c 1.634,1.9281 0.20329,3.56758 0.20329,3.56758 -0.672,7.03835 0.52211,10.86863 0.52211,10.86863 l 0.57775,0.17289 c 0.73037,1.25267 2.63839,1.19412 2.63839,1.19412 1.57699,-0.14456 1.23344,0.84678 1.23344,0.84678 -1.18571,1.89102 -2.8367,1.28941 -2.8367,1.28941 -0.82567,-0.25994 -1.33079,0.39833 -1.33079,0.39833 -1.91539,0.63646 -2.56662,-0.3676 -2.56662,-0.3676 -0.47919,-1.33095 0.0362,-2.73368 0.0362,-2.73368 -0.0699,-0.99838 -1.021737,-4.3268 -1.021737,-4.3268 -0.801802,-2.16419 -0.305269,-8.541 -0.305269,-8.541 l -2.373642,-2.27114 -2.116449,3.37151 c -0.359695,2.15028 -2.679426,1.95643 -2.679426,1.95643 -1.168709,0.64711 -4.750034,1.92811 -4.750034,1.92811 -1.493893,0.0637 -5.67202,2.57864 -5.67202,2.57864 -0.340122,0.74188 -1.174717,1.06157 -1.174717,1.06157 -1.743533,0.14628 -2.428928,1.87883 -2.428928,1.87883 -0.5956,1.23446 -1.088185,0.89829 -1.088185,0.89829 -1.057966,-1.58866 0.04738,-3.81602 0.04738,-3.81602 z m 14.895319,-31.43853 -3.323443,2.19577 c 0,0 2.265133,2.70432 4.498504,3.10608 -1.72e-4,1.7e-4 -0.254963,-4.29334 -1.175061,-5.30185 z"
       id="path976" />
    <path
       style="fill:#c8102e;fill-opacity:1;stroke-width:0.04033341;stroke-miterlimit:10"
       inkscape:connector-curvature="0"
       d="m 39.226655,229.2772 c 0.06809,-0.0455 0.157622,-0.0685 0.209775,-0.12653 0.640089,-0.71312 1.366777,-0.2662 1.617568,-0.80118 0.113054,-0.24112 0.209935,-0.48851 0.308229,-0.73415 0.102769,-0.25684 -0.192471,-0.83672 -0.462382,-0.93996 -1.153132,-0.44101 -1.353186,-1.42127 -1.562879,-1.82436 -0.66776,-1.28362 -0.188881,-3.08777 1.164426,-3.83172 0.721565,-0.39667 1.510001,-0.64174 2.353856,-0.6219 0.317869,0.008 0.925491,-0.22788 1.40816,0.0298 0.375788,0.20061 0.83813,-0.23269 1.354236,0.4429 0.186461,0.24409 0.476376,0.43072 0.343399,0.81941 -0.03251,0.0951 0.04087,0.23298 0.150483,0.29984 0.137374,0.0838 0.19497,0.2341 0.302863,0.34082 0.238854,0.23631 0.324643,0.48376 0.155606,0.81227 -0.14282,0.27758 0.134795,0.43859 0.260029,0.62597 0.141854,0.21228 0.372521,0.35329 0.518324,0.57124 0.460447,0.68818 -0.526752,0.49659 -0.201423,0.91735 0.277212,0.35857 -0.118903,0.63473 0.147136,0.97015 0.07276,0.0918 0.06462,0.19783 0.05828,0.30375 -0.04045,0.67543 0.311415,1.25755 -0.404463,1.51528 -0.378406,0.13625 -0.710956,0.36239 -1.082708,0.51074 -0.204209,0.0815 -0.335292,0.24301 -0.378935,0.47412 -0.0394,0.20868 -0.711882,1.67331 0.255714,1.92918 0.852206,0.22539 2.634015,0.97184 3.138706,1.8393 0.332469,0.57148 0.498642,-0.28961 1.920919,0.55792 0.181419,0.10815 0.06236,0.49759 0.410957,0.60944 0.108012,0.0346 0.139836,0.16464 0.131768,0.27048 -0.04412,0.57741 0.16081,1.14953 0.06692,1.72042 -0.110955,0.6747 0.0897,1.37948 -0.137618,2.02259 -0.50102,1.41732 -0.215823,3.16202 -0.83857,4.36247 -0.78997,1.52254 -0.945939,2.07664 -1.750228,2.47986 -0.383691,0.19235 -0.641663,0.11522 -0.92194,-0.22192 -0.844623,-1.01595 -0.851842,-1.32043 -0.98095,-0.96784 -0.297822,0.81336 -0.644891,1.61238 -0.883421,2.4426 -0.209936,0.73071 -0.317586,1.49047 -0.590039,2.2078 -0.09309,0.24516 0.03782,0.49078 0.09317,0.72528 0.150524,0.63824 0.158307,1.27922 0.108012,1.92536 -0.0432,0.55526 -0.238006,0.63661 -0.488275,0.63096 -0.413458,-0.009 -0.40503,0.007 -0.507192,0.391 -0.324968,1.22097 1.057622,1.53247 2.015095,2.96414 2.013485,3.01068 4.15676,5.468 3.475854,6.86072 -1.488182,3.04484 -1.461563,1.52677 -5.15582,4.23904 -1.507056,1.10647 -3.253493,1.62579 -5.093705,3.37002 -0.361669,0.34282 -0.751976,0.64706 -1.05972,1.04942 -0.158471,0.20715 -0.223164,0.45682 -0.386072,0.66111 -0.08829,0.11074 -0.107482,0.3069 0.06151,0.44033 0.264223,0.20864 -0.277011,1.29885 -0.41858,1.5448 -0.180453,0.31359 -0.256844,0.67353 -0.273381,1.04262 -0.02085,0.4659 -0.08511,0.92933 -0.06994,1.39779 0.0033,0.10127 -0.02154,0.22764 -0.08244,0.30267 -0.443546,0.5464 0.08966,1.08387 0.422573,1.74857 0.589151,1.17637 -0.6365,1.46124 -1.65012,0.91445 -0.36296,-0.19583 0.174039,-0.22055 -0.711764,-0.65413 -0.07861,-0.0385 -0.157985,-0.11277 -0.154557,-0.18195 0.02758,-0.55402 -1.136192,-0.77114 -0.697566,-1.42345 0.05437,-0.0808 -0.0032,-0.23103 -0.148388,-0.27229 -0.370904,-0.10545 -0.541918,-0.37531 -0.444191,-0.74023 0.04125,-0.15405 0.114588,-0.27472 -0.09946,-0.36406 -0.140239,-0.0585 -0.160446,-0.23167 -0.09196,-0.33759 0.147983,-0.22882 -0.04469,-0.54534 -0.03118,-0.60105 0.163148,-0.67316 -0.44044,-1.01865 -0.663121,-1.52497 -0.262692,-0.59713 -0.879753,0.50345 -1.208594,1.09107 -0.676269,1.2085 -1.380853,2.40129 -1.764142,3.75157 -0.119831,0.42212 -0.340936,0.81506 -0.320489,1.27247 0.0021,0.0459 -0.02973,0.11972 -0.01037,0.13472 0.309638,0.23954 0.177344,0.65804 0.382604,0.93396 0.138906,0.18674 0.168957,0.3968 0.113942,0.60198 -0.212801,0.79348 0.156007,1.49863 -0.209816,1.75082 -0.279591,0.19275 -0.291003,0.54028 -0.005,0.70854 0.377037,0.22183 0.320008,0.43811 0.692886,0.4127 0.385185,-0.0263 0.388613,0.25635 0.49683,0.36309 0.411921,0.40631 0.419344,0.45841 0.155484,0.95758 -0.06954,0.13158 -0.188559,0.17114 -0.317265,0.19146 -0.324963,0.0513 -0.64275,0.16448 -0.963403,0.19744 -0.54192,0.0557 -1.092954,0.13737 -1.637857,0.0202 -0.119307,-0.0257 -0.32287,0.009 -0.293427,-0.24535 0.0072,-0.0621 -0.140277,-0.10465 -0.232078,-0.11817 -0.466777,-0.0688 -0.747458,-0.44637 -1.118364,-0.67374 -0.05538,-0.0339 -0.138424,-0.11712 -0.104336,-0.16843 0.176538,-0.26559 -0.09075,-0.28145 -0.194732,-0.40782 -0.205218,-0.2493 -0.494891,-0.47624 -0.400671,-0.86683 0.03947,-0.16368 -0.07623,-0.20663 -0.183961,-0.25056 -1.256788,-0.51268 -1.449218,-1.66612 -2.045388,-2.00332 -0.340252,-0.19247 -0.496462,-1.48096 0.371392,-1.9752 3.168347,-1.80435 2.740855,-0.31775 4.662942,-6.0488 0.421485,-1.25668 -8.53e-4,-1.43998 0.871363,-4.06239 0.128262,-0.3855 0.447176,-0.72195 0.664979,-1.05839 0.910487,-1.40651 1.382023,-2.31594 1.836018,-2.44278 0.177222,-0.0495 0.26386,-0.17582 0.29419,-0.35644 0.329969,-1.96471 1.42611,-3.89337 1.642054,-4.84886 0.132698,-0.58699 0.359372,-1.1435 0.596975,-1.69527 0.4256,-0.98837 0.623434,-2.04527 0.916375,-3.07353 0.05388,-0.18911 0.03464,-0.36485 -0.116362,-0.52166 -0.145402,-0.15097 -0.802393,-1.68227 -0.922505,-2.41267 -0.07788,-0.47359 -0.07099,-0.96098 0.02214,-1.43692 0.12217,-0.62427 0.152783,-1.26264 0.300282,-1.88305 0.04001,-0.16829 -0.12826,-0.90052 0.198198,-1.32535 0.169845,-0.22098 0.139514,-0.54079 0.161293,-0.82118 0.409586,-5.27683 0.932751,-3.93849 0.162464,-11.19495 -0.03397,-0.32009 -0.08244,-0.34299 -0.396599,-0.29584 -0.366831,0.055 -0.664048,0.27781 -1.001075,0.40486 -2.616229,0.98628 -3.018876,-0.002 -2.294289,1.72515 0.375869,0.89609 0.324084,1.76781 1.608985,3.48658 0.282494,0.37789 1.194715,1.19992 1.194675,2.43182 -8.1e-5,1.40376 0.604598,1.5488 -0.270315,2.97721 -0.127736,0.20852 -0.349004,0.27539 -0.584552,0.1452 -0.145079,-0.0802 -0.275154,-0.0587 -0.427413,-0.009 -0.703938,0.22772 -1.299222,-0.18735 -1.604141,-0.0566 -0.110437,0.0474 -0.224736,-0.056 -0.325855,-0.10713 -0.181216,-0.0917 -0.181499,-0.41549 0.103783,-0.40071 0.49864,0.0258 0.01816,-0.23955 0.227683,-0.80139 0.238614,-0.63985 0.366267,-1.30833 0.508887,-1.97311 0.04231,-0.19723 0.01976,-0.37188 -0.125761,-0.52308 -1.295022,-1.34586 -0.763591,-0.63066 -2.397176,-2.81253 -0.70075,-0.93595 -1.907729,-3.53902 -2.113632,-3.86495 -0.1456,-0.23042 -0.04024,-0.48397 -0.05235,-0.72463 -0.01423,-0.28299 0.238453,-0.36769 0.450848,-0.47802 0.927223,-0.48167 1.208469,-1.39354 3.455724,-2.16527 1.550014,-0.53227 2.187928,-0.4542 2.68181,-1.05504 0.455566,-0.55426 1.098399,-0.88717 1.820568,-1.0273 0.368447,-0.0715 0.703657,-0.27152 1.090697,-0.27697 0.982844,-0.0138 1.409006,0.13564 1.924951,-0.20909 z m -3.79977,39.16454 c 1.568446,0.0791 2.764814,-1.41606 3.458267,-2.05978 0.568941,-0.52813 1.094203,-1.1174 1.459948,-1.80274 1.623096,-3.04115 3.559301,-3.37365 3.900642,-3.48876 0.206429,-0.0696 0.285682,-0.33283 0.113985,-0.46086 -0.291409,-0.21723 -0.591733,-0.45878 -0.928033,-0.56885 -0.917746,-0.30033 -1.284901,-0.78437 -1.558161,-0.145 -0.235425,0.55088 -0.351102,0.39772 -0.89895,1.4979 -0.173029,0.34743 -0.307219,0.7873 -0.83458,0.78819 -0.11539,2.1e-4 -0.162783,0.12198 -0.235869,0.19679 -0.397443,0.40712 -0.745441,0.86366 -1.223554,1.19052 -0.432453,0.29564 -0.796987,1.1061 -0.976351,1.59715 -0.539296,1.47642 -2.135571,1.74838 -2.583071,2.85558 -0.115435,0.28559 0.05006,0.387 0.305727,0.39986 z m 14.441777,-31.58065 c 0.01669,-0.21683 -0.02836,-0.86954 -0.267812,-0.82493 -0.13169,0.0245 -0.07979,0.19187 -0.07361,0.30394 0.04892,0.88617 -0.374776,0.49554 -0.247928,0.9664 0.161332,0.5987 0.01145,0.87894 0.27475,0.88055 0.349449,0.002 0.250713,-0.94989 0.3146,-1.32596 z m -0.269629,-3.20788 c -0.04469,-0.0854 -0.301128,-0.0797 -0.258173,0.0328 0.03198,0.0839 0.113135,0.0543 0.178355,0.0525 0.05313,-0.001 0.08329,-0.0284 0.07982,-0.0855 z"
       id="path987" />
  </g>
</svg>
